<?xml version="1.0" encoding="UTF-8" standalone="no"?>
<!-- Created with Inkscape (http://www.inkscape.org/) -->

<svg
   xmlns:dc="http://purl.org/dc/elements/1.1/"
   xmlns:cc="http://creativecommons.org/ns#"
   xmlns:rdf="http://www.w3.org/1999/02/22-rdf-syntax-ns#"
   xmlns:svg="http://www.w3.org/2000/svg"
   xmlns="http://www.w3.org/2000/svg"
   xmlns:sodipodi="http://sodipodi.sourceforge.net/DTD/sodipodi-0.dtd"
   xmlns:inkscape="http://www.inkscape.org/namespaces/inkscape"
   width="850"
   height="850"
   id="svg2"
   version="1.1"
   inkscape:version="0.48.4 r9939"
   sodipodi:docname="wunder3.svg"
   inkscape:export-filename="G:\User\Desktop\wunderlist3w.png"
   inkscape:export-xdpi="90"
   inkscape:export-ydpi="90">
  <defs
     id="defs4" />
  <sodipodi:namedview
     id="base"
     pagecolor="#ffffff"
     bordercolor="#666666"
     borderopacity="1.0"
     inkscape:pageopacity="0"
     inkscape:pageshadow="2"
     inkscape:zoom="0.76470588"
     inkscape:cx="425"
     inkscape:cy="425"
     inkscape:document-units="px"
     inkscape:current-layer="g3786"
     showgrid="false"
     inkscape:snap-bbox="true"
     inkscape:bbox-paths="true"
     inkscape:bbox-nodes="true"
     inkscape:snap-bbox-edge-midpoints="true"
     inkscape:snap-bbox-midpoints="true"
     inkscape:object-paths="true"
     inkscape:snap-intersection-paths="true"
     inkscape:object-nodes="true"
     inkscape:snap-smooth-nodes="true"
     inkscape:snap-midpoints="true"
     inkscape:snap-object-midpoints="true"
     inkscape:snap-center="true"
     inkscape:snap-page="false"
     inkscape:showpageshadow="false"
     showborder="true"
     borderlayer="false"
     showguides="false"
     inkscape:guide-bbox="true"
     inkscape:window-width="1600"
     inkscape:window-height="837"
     inkscape:window-x="-8"
     inkscape:window-y="-8"
     inkscape:window-maximized="1">
    <sodipodi:guide
       position="0,0"
       orientation="0,800"
       id="guide3014" />
    <sodipodi:guide
       position="800,0"
       orientation="-800,0"
       id="guide3016" />
    <sodipodi:guide
       position="800,800"
       orientation="0,-800"
       id="guide3018" />
    <sodipodi:guide
       position="0,800"
       orientation="800,0"
       id="guide3020" />
  </sodipodi:namedview>
  <metadata
     id="metadata7">
    <rdf:RDF>
      <cc:Work
         rdf:about="">
        <dc:format>image/svg+xml</dc:format>
        <dc:type
           rdf:resource="http://purl.org/dc/dcmitype/StillImage" />
        <dc:title></dc:title>
      </cc:Work>
    </rdf:RDF>
  </metadata>
  <g
     inkscape:label="Layer 1"
     inkscape:groupmode="layer"
     id="layer1"
     transform="translate(0,-202.36218)">
    <g
       id="g3815">
      <g
         id="g3800">
        <g
           id="g3786"
           transform="translate(25,-25.000005)">
          <path
             sodipodi:nodetypes="cc"
             inkscape:connector-curvature="0"
             id="path3947"
             d="m 175.00001,927.36216 0,-650"
             style="fill:none;stroke:#ffffff;stroke-width:40;stroke-linecap:round;stroke-linejoin:miter;stroke-miterlimit:4;stroke-opacity:1;stroke-dasharray:none" />
          <path
             sodipodi:nodetypes="cc"
             inkscape:connector-curvature="0"
             id="path3951"
             d="m 625.00001,927.36216 0,-650"
             style="fill:none;stroke:#ffffff;stroke-width:40;stroke-linecap:round;stroke-linejoin:round;stroke-miterlimit:4;stroke-opacity:1;stroke-dasharray:none" />
          <path
             inkscape:connector-curvature="0"
             id="path3955"
             d="m 175.00001,927.36216 225,-74.23077 225,74.23077"
             style="fill:none;stroke:#ffffff;stroke-width:40;stroke-linecap:round;stroke-linejoin:round;stroke-miterlimit:4;stroke-opacity:1;stroke-dasharray:none" />
          <path
             inkscape:connector-curvature="0"
             id="path3986"
             d="m 24.99999,340.82371 c 0,0 0,0 0,0 0,-35.04884 28.4127,-63.46154 63.46154,-63.46154"
             style="fill:none;stroke:#ffffff;stroke-width:70;stroke-linecap:round;stroke-linejoin:round;stroke-miterlimit:4;stroke-opacity:1;stroke-dasharray:none" />
          <path
             inkscape:connector-curvature="0"
             id="path3986-1"
             d="m 88.46153,1027.3622 c -35.04884,0 -63.46154,-28.4127 -63.46154,-63.46154"
             style="fill:none;stroke:#ffffff;stroke-width:70;stroke-linecap:round;stroke-linejoin:round;stroke-miterlimit:4;stroke-opacity:1;stroke-dasharray:none" />
          <path
             inkscape:connector-curvature="0"
             id="path4295"
             d="m 775.00001,963.90066 c 0,0 0,0 0,0 l 0,0 0,0 c 0,35.04884 -28.4127,63.46154 -63.46154,63.46154 0,0 0,0 0,0"
             style="fill:none;stroke:#ffffff;stroke-width:70;stroke-linecap:round;stroke-linejoin:round;stroke-miterlimit:4;stroke-opacity:1;stroke-dasharray:none" />
          <path
             inkscape:connector-curvature="0"
             id="path3986-4"
             d="m 711.53847,277.36217 c 0,0 0,0 0,0 35.04884,0 63.46154,28.4127 63.46154,63.46154"
             style="fill:none;stroke:#ffffff;stroke-width:70;stroke-linecap:round;stroke-linejoin:round;stroke-miterlimit:4;stroke-opacity:1;stroke-dasharray:none" />
          <path
             inkscape:connector-curvature="0"
             id="path4236"
             d="m 88.461533,277.36217 623.076937,0"
             style="fill:none;stroke:#ffffff;stroke-width:70;stroke-linecap:butt;stroke-linejoin:miter;stroke-miterlimit:4;stroke-opacity:1;stroke-dasharray:none" />
          <path
             inkscape:connector-curvature="0"
             id="path4238"
             d="m 775.00001,340.82371 0,623.07695"
             style="fill:none;stroke:#ffffff;stroke-width:70;stroke-linecap:butt;stroke-linejoin:miter;stroke-miterlimit:4;stroke-opacity:1;stroke-dasharray:none" />
          <path
             inkscape:connector-curvature="0"
             id="path4240"
             d="m 711.53847,1027.3622 -623.076937,0"
             style="fill:none;stroke:#ffffff;stroke-width:70;stroke-linecap:butt;stroke-linejoin:miter;stroke-miterlimit:4;stroke-opacity:1;stroke-dasharray:none" />
          <path
             inkscape:connector-curvature="0"
             id="path4242"
             d="m 24.999992,963.90066 0,-623.07695"
             style="fill:none;stroke:#ffffff;stroke-width:70;stroke-linecap:butt;stroke-linejoin:miter;stroke-miterlimit:4;stroke-opacity:1;stroke-dasharray:none" />
          <path
             style="fill:#ffffff;stroke:#ffffff;stroke-width:5;stroke-linecap:butt;stroke-linejoin:miter;stroke-miterlimit:4;stroke-opacity:1;stroke-dasharray:none;fill-opacity:1"
             d="m 195.44615,598.20833 0,-300.30769 204.3077,0 204.30769,0 0,300.43937 c 0,239.83828 -0.31033,300.32315 -1.53846,299.86319 -0.84616,-0.3169 -45.4796,-15.08557 -99.18543,-32.8193 -70.33339,-23.22416 -99.25188,-32.25294 -103.38462,-32.27822 -4.26684,-0.0261 -31.11624,8.35309 -104.74061,32.68763 -54.45163,17.99749 -99.17471,32.72272 -99.38462,32.72272 -0.2099,0 -0.38165,-135.13847 -0.38165,-300.3077 z m 112.79571,139.67703 c 0.77609,-0.2338 21.6985,-15.16863 46.49423,-33.18851 l 45.08313,-32.76342 3.96732,2.78785 c 2.18201,1.53333 22.0582,15.91562 44.16929,31.96065 22.11109,16.04504 41.32083,29.7716 42.68832,30.50345 1.36748,0.73185 5.00631,1.33065 8.08629,1.33065 7.39482,0 12.8457,-4.60531 14.19692,-11.9946 0.8278,-4.52691 -0.38279,-9.25009 -9.928,-38.73433 -19.6216,-60.60931 -23.67246,-73.56291 -23.14798,-74.02135 0.28482,-0.24896 20.17939,-14.67676 44.21016,-32.06181 24.03077,-17.38503 45.07692,-33.33359 46.76923,-35.44121 5.77526,-7.1926 3.28025,-19.02883 -4.92308,-23.35486 -2.36643,-1.24793 -16.26858,-1.76471 -60.20594,-2.238 l -57.12902,-0.61538 -4.64909,-14.15385 c -2.55699,-7.78461 -10.29954,-31.6 -17.20567,-52.92308 -11.32144,-34.9556 -12.97116,-39.1627 -16.77108,-42.76923 -3.30449,-3.13632 -5.27171,-4 -9.11103,-4 -5.80523,0 -11.0871,2.47906 -13.63291,6.39864 -1.01173,1.55767 -9.50284,26.50906 -18.86913,55.44752 l -17.02964,52.61538 -54.2367,0.0294 c -29.83019,0.0161 -56.4521,0.54059 -59.15979,1.16543 -7.19886,1.66123 -11.69231,7.16722 -11.69231,14.32702 0,3.10027 0.87224,7.10692 1.93831,8.90367 1.06607,1.79675 22.34709,18.0992 47.29116,36.22766 l 45.35285,32.96085 -2.29963,7.03915 c -23.74385,72.67982 -31.97499,99.10934 -31.97499,102.66903 0,10.80771 10.23264,17.35343 21.71878,13.89331 l 0,0 z"
             id="path3771"
             inkscape:connector-curvature="0" />
        </g>
      </g>
    </g>
  </g>
</svg>
